<svg xmlns="http://www.w3.org/2000/svg" viewBox="0 0 70 62.5" x="0px" y="0px"><path fill="#000000" d="M199,786 C199,784.21819 201.154284,783.325857 202.414214,784.585786 L204.87963,787.051203 C206.321972,785.708045 208.046813,785 210,785 C211.953187,785 213.678028,785.708045 215.12037,787.051203 L217.585786,784.585786 C218.845716,783.325857 221,784.21819 221,786 L221,797.51606 C226.44714,796.331149 231.156621,796.901869 235.048195,799.296683 C241.552268,803.29919 244.468812,811.319686 243.998402,823.079936 C243.923189,824.960247 241.529089,825.705452 240.4,824.2 C238.756129,822.008172 236.991828,821 235,821 C233.008172,821 231.243871,822.008172 229.6,824.2 C228.8,825.266667 227.2,825.266667 226.4,824.2 C224.756129,822.008172 222.991828,821 221,821 C219.118986,821 217.794609,821.882918 216.748315,823.971286 L211.748315,832.971286 C210.986304,834.342905 209.013696,834.342905 208.251685,832.971286 L203.320284,824.094762 C201.6991,821.97588 199.95967,821 198,821 C196.008172,821 194.243871,822.008172 192.6,824.2 C191.8,825.266667 190.2,825.266667 189.4,824.2 C187.756129,822.008172 185.991828,821 184,821 C182.118986,821 180.794609,821.882918 179.788854,823.894427 C178.864266,825.743603 176.08423,825.145726 176.001598,823.079936 C175.531188,811.319686 178.447732,803.29919 184.951805,799.296683 C188.843379,796.901869 193.55286,796.331149 199,797.51606 L199,786 Z M206.5,796 C207.328427,796 208,795.328427 208,794.5 C208,793.671573 207.328427,793 206.5,793 C205.671573,793 205,793.671573 205,794.5 C205,795.328427 205.671573,796 206.5,796 Z M213.5,796 C214.328427,796 215,795.328427 215,794.5 C215,793.671573 214.328427,793 213.5,793 C212.671573,793 212,793.671573 212,794.5 C212,795.328427 212.671573,796 213.5,796 Z" transform="translate(-175 -784)"/><text x="0" y="65" fill="#000000" font-size="5px" font-weight="bold" font-family="'Helvetica Neue', Helvetica, Arial-Unicode, Arial, Sans-serif"></text><text x="0" y="70" fill="#000000" font-size="5px" font-weight="bold" font-family="'Helvetica Neue', Helvetica, Arial-Unicode, Arial, Sans-serif">from the Noun Project</text></svg>
