<svg xmlns="http://www.w3.org/2000/svg" xmlns:xlink="http://www.w3.org/1999/xlink" version="1.1" x="0px" y="0px" viewBox="0 0 80 100" enable-background="new 0 0 80 80" xml:space="preserve"><g><path d="M33.98,14.848c0.513,0.379,0.955,0.85,1.373,1.329c0.521,0.599,0.967,1.341,1.262,2.075   c1.018,2.532,0.322,5.377-1.124,7.604l1.769,0.804c0.446-0.351,1.42-0.975,2.771-1.047c1.28-0.069,2.432,0.44,3.022,0.766   c0.245-0.321,0.494-0.598,0.743-0.855c-1.313-1.246-2.131-2.918-2.635-4.664c-0.328-1.132-0.511-2.299-0.828-3.433   c-0.192-0.687-0.406-1.373-0.66-2.038c-0.759-1.984-2.088-3.784-4.412-3.767c-1.053,0.008-2.694,0.575-2.478,1.918   C32.881,14.155,33.525,14.511,33.98,14.848z"/><path d="M70.712,35.961c-0.808-2.011-5.063-8.543-9.334-10.708c-4.271-2.165-8.24-1.399-10.652-0.639c0,0-2.016-0.404-3.285-0.116   c-1.27,0.287-2.863,1.158-4.238,3.131c0,0-1.45-1.021-3.129-0.932c-1.679,0.09-2.713,1.135-2.713,1.135l-2.942-1.337   c-1.993-0.927-6.487-2.124-10.563-1.947c-4.076,0.178-7.315,2.147-10.32,5.125c-3.005,2.978-5.146,8.945-6.068,13.53   c-0.922,4.585,0.745,12.838,4.949,16.935c4.205,4.096,7.291,5.13,13.064,5.119c0,0,2.839,1.852,6.206,2.399   c3.366,0.55,5.674,0.214,8.79-0.784c0,0,1.399,1.259,3.013,1.331c1.611,0.071,3.053-0.921,4.087-2.211c0,0,0.659,0.867,2.427,1.025   c1.769,0.158,3.909-0.883,4.761-1.643c0,0,2.682,0.697,5.002,0.083c2.322-0.615,3.631-1.792,5.492-3.764   c1.863-1.971,5.127-6.933,6.531-12.942S71.521,37.971,70.712,35.961z M49.91,31.504l7.18,8.726l-10.54,1.563L49.91,31.504z    M31.464,31.908l3.833,10.203l-10.465-1.464L31.464,31.908z M56.723,56.308l-4.096-4.311l-3.089,5.307l-3.634-4.391l-4.433,5.508   l-3.981-5.125l-4.782,4.375l-3.649-4.052l-5.194,3.776L17.148,45.25l7.361,4.103l3.6-3.25l4.701,3.948l4.537-4.135l4.355,4.323   l3.62-4.043l3.762,3.533l2.709-3.738l3.306,2.018l7.933-4.792L56.723,56.308z"/></g><text x="0" y="95" fill="#000000" font-size="5px" font-weight="bold" font-family="'Helvetica Neue', Helvetica, Arial-Unicode, Arial, Sans-serif"></text><text x="0" y="100" fill="#000000" font-size="5px" font-weight="bold" font-family="'Helvetica Neue', Helvetica, Arial-Unicode, Arial, Sans-serif"></text></svg>
